<?xml version="1.0" standalone="no"?>
<svg xmlns:xlink="http://www.w3.org/1999/xlink" id="wave" style="transform:rotate(180deg); transition: 0.3s" viewBox="0 0 1440 100" version="1.1" xmlns="http://www.w3.org/2000/svg"><defs><linearGradient id="sw-gradient-0" x1="0" x2="0" y1="1" y2="0"><stop stop-color="rgba(252, 247, 209, 1)" offset="0%"/><stop stop-color="rgba(252, 247, 209, 1)" offset="100%"/></linearGradient></defs><path style="transform:translate(0, 0px); opacity:1" fill="url(#sw-gradient-0)" d="M0,20L16,26.7C32,33,64,47,96,51.7C128,57,160,53,192,45C224,37,256,23,288,15C320,7,352,3,384,15C416,27,448,53,480,53.3C512,53,544,27,576,13.3C608,0,640,0,672,6.7C704,13,736,27,768,26.7C800,27,832,13,864,11.7C896,10,928,20,960,35C992,50,1024,70,1056,66.7C1088,63,1120,37,1152,23.3C1184,10,1216,10,1248,15C1280,20,1312,30,1344,31.7C1376,33,1408,27,1440,31.7C1472,37,1504,53,1536,65C1568,77,1600,83,1632,85C1664,87,1696,83,1728,76.7C1760,70,1792,60,1824,53.3C1856,47,1888,43,1920,46.7C1952,50,1984,60,2016,53.3C2048,47,2080,23,2112,25C2144,27,2176,53,2208,55C2240,57,2272,33,2288,21.7L2304,10L2304,100L2288,100C2272,100,2240,100,2208,100C2176,100,2144,100,2112,100C2080,100,2048,100,2016,100C1984,100,1952,100,1920,100C1888,100,1856,100,1824,100C1792,100,1760,100,1728,100C1696,100,1664,100,1632,100C1600,100,1568,100,1536,100C1504,100,1472,100,1440,100C1408,100,1376,100,1344,100C1312,100,1280,100,1248,100C1216,100,1184,100,1152,100C1120,100,1088,100,1056,100C1024,100,992,100,960,100C928,100,896,100,864,100C832,100,800,100,768,100C736,100,704,100,672,100C640,100,608,100,576,100C544,100,512,100,480,100C448,100,416,100,384,100C352,100,320,100,288,100C256,100,224,100,192,100C160,100,128,100,96,100C64,100,32,100,16,100L0,100Z"/></svg>